<?xml version="1.0" encoding="utf-8"?>
<!-- Generator: Adobe Illustrator 17.1.0, SVG Export Plug-In . SVG Version: 6.00 Build 0)  -->
<!DOCTYPE svg PUBLIC "-//W3C//DTD SVG 1.1//EN" "http://www.w3.org/Graphics/SVG/1.1/DTD/svg11.dtd">
<svg version="1.1" id="Layer_1" xmlns="http://www.w3.org/2000/svg" xmlns:xlink="http://www.w3.org/1999/xlink" x="0px" y="0px"
	 viewBox="0 0 14 14" enable-background="new 0 0 14 14" xml:space="preserve">
<path fill="#363636" d="M1,3v3h3V3H1z M3.5,5.5h-2v-2h2V5.5z"/>
<path fill="#363636" d="M5.5,3v3h3V3H5.5z M8,5.5H6v-2h2V5.5z"/>
<path fill="#363636" d="M10,3v3h3V3H10z M12.5,5.5h-2v-2h2V5.5z"/>
<path fill="#363636" d="M1,8v3h3V8H1z M3.5,10.5h-2v-2h2V10.5z"/>
<path fill="#363636" d="M5.5,8v3h3V8H5.5z M8,10.5H6v-2h2V10.5z"/>
<path fill="#363636" d="M10,8v3h3V8H10z M12.5,10.5h-2v-2h2V10.5z"/>
</svg>
