<?xml version="1.0" encoding="UTF-8"?>
<svg width="232px" height="70px" viewBox="0 0 232 70" version="1.1" xmlns="http://www.w3.org/2000/svg" xmlns:xlink="http://www.w3.org/1999/xlink">
    <title>Gazebo</title>
    <g id="Page-1" stroke="none" stroke-width="1" fill="none" fill-rule="evenodd">
        <path d="M24.426,69.732 C25.99,69.732 27.5885,69.4445 29.2215,68.8695 C30.8545,68.2945 32.292,67.478 33.534,66.42 C34.776,65.27 35.8915,63.9015 36.8805,62.3145 C37.8695,60.7275 38.847,58.853 39.813,56.691 C39.859,56.599 39.974,56.507 40.158,56.415 C42.136,56.001 43.9415,55.541 45.5745,55.035 C47.2075,54.529 48.806,53.839 50.37,52.965 C52.578,51.723 54.4065,50.251 55.8555,48.549 C57.3045,46.847 58.834,44.616 60.444,41.856 C60.904,41.074 61.134,40.338 61.134,39.648 C61.134,39.004 60.95,38.4865 60.582,38.0955 C60.214,37.7045 59.777,37.509 59.271,37.509 C58.673,37.509 58.167,37.808 57.753,38.406 C54.809,43.558 51.635,46.985 48.231,48.687 C46.897,49.377 45.034,50.021 42.642,50.619 C42.596,50.619 42.5615,50.596 42.5385,50.55 C42.5155,50.504 42.527,50.458 42.573,50.412 L42.573,50.412 L54.51,23.778 L54.648,23.226 C54.648,22.858 54.5215,22.5475 54.2685,22.2945 C54.0155,22.0415 53.705,21.915 53.337,21.915 L53.337,21.915 L48.99,21.915 C48.392,21.915 47.84,22.076 47.334,22.398 C46.828,22.72 46.46,23.157 46.23,23.709 C46.046,24.123 45.8735,24.514 45.7125,24.882 C45.5515,25.25 45.402,25.595 45.264,25.917 C43.838,29.321 42.527,31.989 41.331,33.921 C39.077,37.601 36.3975,40.5105 33.2925,42.6495 C30.1875,44.7885 27.117,45.858 24.081,45.858 C21.597,45.858 19.688,44.8115 18.354,42.7185 C17.02,40.6255 16.353,37.969 16.353,34.749 C16.353,31.713 16.974,28.585 18.216,25.365 C18.262,25.181 18.4,25.089 18.63,25.089 C20.102,25.227 21.551,25.296 22.977,25.296 C28.497,25.296 33.4075,24.4565 37.7085,22.7775 C42.0095,21.0985 45.3445,18.9595 47.7135,16.3605 C50.0825,13.7615 51.267,11.174 51.267,8.598 C51.267,7.264 50.922,6.022 50.232,4.872 C49.45,3.584 48.1735,2.5835 46.4025,1.8705 C44.6315,1.1575 42.596,0.801 40.296,0.801 C37.352,0.801 34.247,1.422 30.981,2.664 C27.715,3.906 24.5295,5.8495 21.4245,8.4945 C18.3195,11.1395 15.64,14.486 13.386,18.534 C13.294,18.718 13.179,18.787 13.041,18.741 C10.373,18.051 8.234,17.039 6.624,15.705 C5.014,14.371 4.209,12.945 4.209,11.427 C4.209,9.449 5.428,7.678 7.866,6.114 C8.648,5.608 9.039,4.964 9.039,4.182 C9.039,3.768 8.8895,3.4115 8.5905,3.1125 C8.2915,2.8135 7.866,2.664 7.314,2.664 C7.13,2.664 6.716,2.756 6.072,2.94 C4.278,3.584 2.8175,4.7225 1.6905,6.3555 C0.5635,7.9885 0,9.794 0,11.772 C0,14.072 0.782,16.165 2.346,18.051 C4.186,20.351 7.038,22.168 10.902,23.502 C10.948,23.502 10.971,23.5365 10.971,23.6055 C10.971,23.6745 10.948,23.755 10.902,23.847 C9.338,27.849 8.556,31.782 8.556,35.646 C8.556,40.522 9.821,44.4665 12.351,47.4795 C14.881,50.4925 18.469,51.999 23.115,51.999 C25.093,51.999 27.094,51.6655 29.118,50.9985 C31.142,50.3315 33.074,49.354 34.914,48.066 C35.006,48.02 35.0865,48.02 35.1555,48.066 C35.2245,48.112 35.236,48.181 35.19,48.273 L35.19,48.273 L33.465,52.206 C33.327,52.344 33.143,52.459 32.913,52.551 L32.913,52.551 L31.05,53.034 C27.14,54 23.805,55.242 21.045,56.76 C18.285,58.278 16.905,60.578 16.905,63.66 C16.905,65.638 17.618,67.1445 19.044,68.1795 C20.47,69.2145 22.264,69.732 24.426,69.732 Z M21.252,19.707 C21.206,19.707 21.1715,19.6955 21.1485,19.6725 C21.1255,19.6495 21.137,19.615 21.183,19.569 C23.023,16.395 25.162,13.704 27.6,11.496 C30.038,9.288 32.476,7.6435 34.914,6.5625 C37.352,5.4815 39.537,4.941 41.469,4.941 C43.401,4.941 44.735,5.447 45.471,6.459 C45.839,6.873 46.023,7.379 46.023,7.977 C46.023,9.541 44.873,11.2545 42.573,13.1175 C40.273,14.9805 37.214,16.5445 33.396,17.8095 C29.578,19.0745 25.53,19.707 21.252,19.707 Z M23.391,65.523 C22.701,65.523 22.1375,65.339 21.7005,64.971 C21.2635,64.603 21.045,64.143 21.045,63.591 C21.045,62.809 21.413,62.05 22.149,61.314 C23.023,60.486 24.104,59.8765 25.392,59.4855 C26.68,59.0945 28.428,58.692 30.636,58.278 C30.682,58.232 30.728,58.232 30.774,58.278 C30.82,58.324 30.843,58.37 30.843,58.416 C28.635,63.154 26.151,65.523 23.391,65.523 Z M83.3716352,54 C86.5916352,54 89.3286352,52.9305 91.5826352,50.7915 C93.8366352,48.6525 96.0906352,45.651 98.3446352,41.787 C98.8046352,41.005 99.0346352,40.269 99.0346352,39.579 C99.0346352,38.935 98.8391352,38.4175 98.4481352,38.0265 C98.0571352,37.6355 97.6316352,37.44 97.1716352,37.44 C96.4816352,37.44 95.9756352,37.762 95.6536352,38.406 C94.5496352,40.338 93.2961352,42.1665 91.8931352,43.8915 C90.4901352,45.6165 89.0526352,46.87 87.5806352,47.652 C86.8906352,48.066 86.1316352,48.273 85.3036352,48.273 C84.5676352,48.273 83.9696352,48.089 83.5096352,47.721 C83.0496352,47.353 82.8196352,46.87 82.8196352,46.272 C82.8196352,45.904 82.8656352,45.605 82.9576352,45.375 C83.7396352,43.259 84.8321352,40.591 86.2351352,37.371 C87.6381352,34.151 89.5126352,29.942 91.8586352,24.744 C92.0426352,24.284 92.0196352,23.8585 91.7896352,23.4675 C91.5596352,23.0765 91.1916352,22.881 90.6856352,22.881 L90.6856352,22.881 L86.3386352,22.881 C85.7406352,22.881 85.1886352,23.0535 84.6826352,23.3985 C84.1766352,23.7435 83.7856352,24.192 83.5096352,24.744 C83.0956352,25.71 82.8656352,26.239 82.8196352,26.331 L82.8196352,26.331 L82.6816352,26.331 C82.6356352,26.239 82.5206352,26.0665 82.3366352,25.8135 C82.1526352,25.5605 81.8996352,25.273 81.5776352,24.951 C80.7956352,24.169 79.9216352,23.6055 78.9556352,23.2605 C77.9896352,22.9155 76.7706352,22.743 75.2986352,22.743 C73.2286352,22.743 71.0436352,23.3295 68.7436352,24.5025 C66.4436352,25.6755 64.3161352,27.3775 62.3611352,29.6085 C60.4061352,31.8395 58.8996352,34.427 57.8416352,37.371 C56.9676352,39.993 56.5306352,42.362 56.5306352,44.478 C56.5306352,45.628 56.6686352,46.732 56.9446352,47.79 C57.4506352,49.768 58.3706352,51.2975 59.7046352,52.3785 C61.0386352,53.4595 62.7636352,54 64.8796352,54 C68.2836352,54 71.4806352,52.505 74.4706352,49.515 C74.6546352,49.331 74.8501352,49.2735 75.0571352,49.3425 C75.2641352,49.4115 75.4136352,49.538 75.5056352,49.722 C76.1036352,50.964 77.1041352,51.9875 78.5071352,52.7925 C79.9101352,53.5975 81.5316352,54 83.3716352,54 Z M66.1216352,47.859 C64.4656352,47.859 63.6376352,46.824 63.6376352,44.754 C63.6376352,43.328 63.9826352,41.672 64.6726352,39.786 C66.1446352,35.922 68.4906352,32.863 71.7106352,30.609 C73.5506352,29.413 75.2526352,28.815 76.8166352,28.815 C77.7826352,28.815 78.5416352,29.045 79.0936352,29.505 C79.6456352,29.965 79.9216352,30.655 79.9216352,31.575 C79.9216352,32.771 79.1166352,34.979 77.5066352,38.199 C76.6326352,40.085 75.4711352,41.764 74.0221352,43.236 C72.5731352,44.708 71.1241352,45.8465 69.6751352,46.6515 C68.2261352,47.4565 67.0416352,47.859 66.1216352,47.859 Z M99.6752703,69.663 C102.43527,69.663 105.01127,68.973 107.40327,67.593 C109.79527,66.213 111.86527,64.4305 113.61327,62.2455 C115.36127,60.0605 116.69527,57.772 117.61527,55.38 C117.70727,55.196 117.79927,55.104 117.89127,55.104 C122.07727,53.816 125.50427,51.7 128.17227,48.756 C129.64427,47.1 131.23127,44.777 132.93327,41.787 C133.39327,41.005 133.62327,40.269 133.62327,39.579 C133.62327,38.935 133.42777,38.4175 133.03677,38.0265 C132.64577,37.6355 132.22027,37.44 131.76027,37.44 C131.07027,37.44 130.56427,37.762 130.24227,38.406 C128.49427,41.35 126.81527,43.627 125.20527,45.237 C123.41127,47.077 121.38727,48.434 119.13327,49.308 C119.08727,49.354 119.02977,49.354 118.96077,49.308 C118.89177,49.262 118.85727,49.216 118.85727,49.17 C118.85727,47.054 118.39727,45.191 117.47727,43.581 C117.38527,43.397 117.40827,43.282 117.54627,43.236 C119.57027,41.948 121.09977,40.3725 122.13477,38.5095 C123.16977,36.6465 123.68727,34.726 123.68727,32.748 C123.68727,31 123.27327,29.367 122.44527,27.849 C121.61727,26.331 120.43277,25.112 118.89177,24.192 C117.35077,23.272 115.52227,22.812 113.40627,22.812 C109.86427,22.812 106.85127,23.8585 104.36727,25.9515 C101.88327,28.0445 99.6292703,30.908 97.6052703,34.542 L97.6052703,34.542 L94.9142703,39.441 C94.4082703,40.269 94.1552703,41.005 94.1552703,41.649 C94.1552703,42.339 94.4312703,42.799 94.9832703,43.029 C95.2592703,43.167 95.5582703,43.236 95.8802703,43.236 C96.2942703,43.236 96.7082703,43.1095 97.1222703,42.8565 C97.5362703,42.6035 97.8812703,42.247 98.1572703,41.787 C98.4332703,41.373 99.4222703,39.625 101.12427,36.543 C102.59627,33.967 104.20627,31.92 105.95427,30.402 C107.70227,28.884 109.74927,28.125 112.09527,28.125 C113.65927,28.125 114.88977,28.5505 115.78677,29.4015 C116.68377,30.2525 117.13227,31.368 117.13227,32.748 C117.13227,33.806 116.85627,34.933 116.30427,36.129 C115.75227,37.325 114.92427,38.521 113.82027,39.717 C113.72827,39.809 113.61327,39.809 113.47527,39.717 C111.81927,38.475 110.02527,37.854 108.09327,37.854 C106.52927,37.854 105.21827,38.291 104.16027,39.165 C103.10227,40.039 102.57327,41.189 102.57327,42.615 C102.57327,43.857 103.04477,44.961 103.98777,45.927 C104.93077,46.893 106.20727,47.376 107.81727,47.376 C109.01327,47.376 110.34727,47.077 111.81927,46.479 C111.86527,46.433 111.92277,46.433 111.99177,46.479 C112.06077,46.525 112.09527,46.571 112.09527,46.617 C112.14127,48.089 111.84227,49.745 111.19827,51.585 C111.19827,51.769 111.10627,51.861 110.92227,51.861 C108.89827,52.413 106.85127,52.919 104.78127,53.379 C102.38927,53.885 100.50327,54.3565 99.1232703,54.7935 C97.7432703,55.2305 96.4092703,55.817 95.1212703,56.553 C93.7872703,57.335 92.7522703,58.301 92.0162703,59.451 C91.2802703,60.601 90.9122703,61.774 90.9122703,62.97 C90.9122703,64.81 91.6827703,66.3855 93.2237703,67.6965 C94.7647703,69.0075 96.9152703,69.663 99.6752703,69.663 Z M107.61027,43.305 C106.96627,43.305 106.64427,43.075 106.64427,42.615 C106.64427,42.431 106.77077,42.27 107.02377,42.132 C107.27677,41.994 107.58727,41.925 107.95527,41.925 C108.64527,41.925 109.38127,42.132 110.16327,42.546 C110.25527,42.546 110.27827,42.569 110.23227,42.615 C110.18627,42.661 110.14027,42.684 110.09427,42.684 C109.08227,43.098 108.25427,43.305 107.61027,43.305 Z M98.6402703,65.523 C97.6742703,65.523 96.8462703,65.27 96.1562703,64.764 C95.4662703,64.258 95.1212703,63.66 95.1212703,62.97 C95.1212703,62.004 95.8572703,61.107 97.3292703,60.279 C98.1112703,59.819 98.9162703,59.474 99.7442703,59.244 C100.57227,59.014 101.86027,58.715 103.60827,58.347 C106.55227,57.703 108.09327,57.358 108.23127,57.312 C108.36927,57.312 108.41527,57.381 108.36927,57.519 C107.03527,59.773 105.55177,61.6705 103.91877,63.2115 C102.28577,64.7525 100.52627,65.523 98.6402703,65.523 Z M142.129905,54.276 C150.823905,54.276 157.654905,50.136 162.622905,41.856 C163.082905,41.074 163.312905,40.338 163.312905,39.648 C163.312905,39.004 163.128905,38.4865 162.760905,38.0955 C162.392905,37.7045 161.955905,37.509 161.449905,37.509 C160.759905,37.509 160.253905,37.831 159.931905,38.475 C157.033905,43.397 153.537905,46.479 149.443905,47.721 C147.649905,48.319 145.970905,48.618 144.406905,48.618 C141.968905,48.618 140.094405,47.951 138.783405,46.617 C137.472405,45.283 136.862905,43.581 136.954905,41.511 C136.954905,41.373 137.046905,41.304 137.230905,41.304 C140.818905,41.074 143.992905,40.522 146.752905,39.648 C149.512905,38.774 151.858905,37.325 153.790905,35.301 C155.492905,33.461 156.343905,31.506 156.343905,29.436 C156.343905,27.458 155.607905,25.779 154.135905,24.399 C152.663905,23.019 150.685905,22.329 148.201905,22.329 C145.027905,22.329 141.980405,23.4215 139.059405,25.6065 C136.138405,27.7915 133.780905,30.471 131.986905,33.645 C130.284905,36.635 129.433905,39.625 129.433905,42.615 C129.433905,46.019 130.537905,48.8135 132.745905,50.9985 C134.953905,53.1835 138.081905,54.276 142.129905,54.276 Z M138.334905,36.957 C138.288905,37.003 138.242905,37.003 138.196905,36.957 C138.150905,36.911 138.150905,36.865 138.196905,36.819 C139.070905,34.749 140.312905,33.001 141.922905,31.575 C143.532905,30.149 145.234905,29.16 147.028905,28.608 C148.040905,28.378 148.753905,28.263 149.167905,28.263 C150.409905,28.263 151.030905,28.769 151.030905,29.781 C151.030905,30.287 150.846905,30.839 150.478905,31.437 C150.110905,32.035 149.650905,32.587 149.098905,33.093 C147.028905,34.933 143.440905,36.221 138.334905,36.957 Z M167.955541,54 C169.979541,54 171.980541,53.448 173.958541,52.344 C175.936541,51.24 177.684541,49.791 179.202541,47.997 C179.294541,47.859 179.432541,47.836 179.616541,47.928 C181.088541,48.48 182.537541,48.756 183.963541,48.756 C186.125541,48.756 188.138041,48.158 190.001041,46.962 C191.864041,45.766 193.462541,44.041 194.796541,41.787 C195.440541,40.683 195.762541,39.694 195.762541,38.82 C195.762541,38.176 195.601541,37.67 195.279541,37.302 C194.957541,36.934 194.566541,36.75 194.106541,36.75 C193.416541,36.75 192.864541,37.072 192.450541,37.716 C190.150541,41.488 187.689541,43.374 185.067541,43.374 C184.239541,43.374 183.503541,43.259 182.859541,43.029 C182.767541,42.983 182.721541,42.891 182.721541,42.753 C183.503541,41.235 184.124541,39.671 184.584541,38.061 C185.044541,36.451 185.274541,34.933 185.274541,33.507 C185.274541,31.391 184.757041,29.666 183.722041,28.332 C182.687041,26.998 181.203541,26.331 179.271541,26.331 C177.937541,26.331 176.741541,26.699 175.683541,27.435 C174.487541,28.263 173.602041,29.3785 173.027041,30.7815 C172.452041,32.1845 172.164541,33.714 172.164541,35.37 C172.164541,37.21 172.463541,38.981 173.061541,40.683 C173.567541,42.109 174.349541,43.466 175.407541,44.754 C175.453541,44.8 175.465041,44.8575 175.442041,44.9265 C175.419041,44.9955 175.384541,45.053 175.338541,45.099 C174.326541,46.065 173.268541,46.778 172.164541,47.238 C171.336541,47.652 170.554541,47.859 169.818541,47.859 C168.806541,47.859 168.001541,47.491 167.403541,46.755 C166.805541,46.019 166.506541,44.869 166.506541,43.305 C166.506541,41.097 167.150541,38.291 168.438541,34.887 C168.622541,34.381 169.197541,32.863 170.163541,30.333 C170.209541,30.241 170.324541,30.103 170.508541,29.919 C172.348541,27.665 173.337541,26.469 173.475541,26.331 C176.189541,23.111 178.432041,20.3625 180.203041,18.0855 C181.974041,15.8085 183.365541,13.727 184.377541,11.841 C185.665541,9.541 186.309541,7.425 186.309541,5.493 C186.309541,3.607 185.665541,2.319 184.377541,1.629 C183.917541,1.353 183.388541,1.215 182.790541,1.215 C180.674541,1.215 178.248041,2.825 175.511041,6.045 C172.774041,9.265 170.106041,13.336 167.507041,18.258 C164.908041,23.18 162.780541,28.033 161.124541,32.817 C159.836541,36.589 159.192541,40.085 159.192541,43.305 C159.192541,46.525 159.894041,49.1125 161.297041,51.0675 C162.700041,53.0225 164.919541,54 167.955541,54 Z M175.028041,17.8202812 L174.993541,17.8095 C174.947541,17.7865 174.924541,17.752 174.924541,17.706 C176.626541,13.658 178.121541,10.645 179.409541,8.667 C180.789541,6.781 181.640541,5.838 181.962541,5.838 C182.238541,5.838 182.204041,6.321 181.859041,7.287 C181.514041,8.253 181.111541,9.15 180.651541,9.978 C179.685541,11.818 177.845541,14.417 175.131541,17.775 C175.085541,17.821 175.039541,17.8325 174.993541,17.8095 L175.028041,17.8202812 Z M179.478541,39.8205 C179.432541,39.8435 179.386541,39.832 179.340541,39.786 C178.420541,38.176 177.960541,36.428 177.960541,34.542 C177.960541,34.22 178.006541,33.737 178.098541,33.093 C178.190541,32.495 178.397541,32.0005 178.719541,31.6095 C179.041541,31.2185 179.386541,31.023 179.754541,31.023 C180.398541,31.023 180.812541,31.529 180.996541,32.541 L180.996541,32.541 L181.065541,33.507 C181.065541,35.439 180.559541,37.509 179.547541,39.717 C179.547541,39.763 179.524541,39.7975 179.478541,39.8205 Z M202.820176,54.483 C204.890176,54.483 206.960176,53.9655 209.030176,52.9305 C211.100176,51.8955 213.032176,50.343 214.826176,48.273 C214.918176,48.135 215.056176,48.112 215.240176,48.204 C216.666176,48.756 218.115176,49.032 219.587176,49.032 C221.749176,49.032 223.761676,48.434 225.624676,47.238 C227.487676,46.042 229.063176,44.317 230.351176,42.063 C231.041176,41.005 231.386176,40.016 231.386176,39.096 C231.386176,38.452 231.213676,37.946 230.868676,37.578 C230.523676,37.21 230.121176,37.026 229.661176,37.026 C228.971176,37.026 228.442176,37.348 228.074176,37.992 C226.970176,39.924 225.854676,41.3615 224.727676,42.3045 C223.600676,43.2475 222.347176,43.719 220.967176,43.719 C220.185176,43.719 219.334176,43.581 218.414176,43.305 C218.322176,43.167 218.299176,43.075 218.345176,43.029 C220.047176,39.809 220.898176,36.658 220.898176,33.576 C220.898176,30.31 219.966676,27.6535 218.103676,25.6065 C216.240676,23.5595 213.745176,22.536 210.617176,22.536 C207.305176,22.536 204.142676,23.6055 201.129676,25.7445 C198.116676,27.8835 195.713176,30.586 193.919176,33.852 C192.217176,36.796 191.366176,39.763 191.366176,42.753 C191.366176,45.007 191.849176,47.0195 192.815176,48.7905 C193.781176,50.5615 195.138176,51.953 196.886176,52.965 C198.634176,53.977 200.612176,54.483 202.820176,54.483 Z M204.476176,48.204 C202.912176,48.204 201.624176,47.675 200.612176,46.617 C199.600176,45.559 199.094176,44.11 199.094176,42.27 C199.094176,41.258 199.209176,40.384 199.439176,39.648 C200.313176,35.83 201.842676,32.9205 204.027676,30.9195 C206.212676,28.9185 208.501176,27.849 210.893176,27.711 C211.031176,27.665 211.111676,27.6765 211.134676,27.7455 C211.157676,27.8145 211.100176,27.872 210.962176,27.918 C209.858176,28.792 209.041676,29.9075 208.512676,31.2645 C207.983676,32.6215 207.719176,34.082 207.719176,35.646 C207.719176,37.348 208.041176,39.096 208.685176,40.89 C209.145176,42.27 209.904176,43.65 210.962176,45.03 C211.054176,45.076 211.100176,45.1335 211.100176,45.2025 C211.100176,45.2715 211.054176,45.329 210.962176,45.375 C209.904176,46.295 208.823176,46.9965 207.719176,47.4795 C206.615176,47.9625 205.534176,48.204 204.476176,48.204 Z M215.033176,40.0965 C214.987176,40.1195 214.964176,40.108 214.964176,40.062 C214.044176,38.452 213.584176,36.704 213.584176,34.818 C213.584176,34.496 213.630176,34.013 213.722176,33.369 C213.814176,32.771 214.021176,32.2765 214.343176,31.8855 C214.665176,31.4945 215.010176,31.299 215.378176,31.299 C215.654176,31.299 215.907176,31.4255 216.137176,31.6785 C216.367176,31.9315 216.528176,32.311 216.620176,32.817 L216.620176,32.817 L216.689176,33.783 C216.689176,35.715 216.183176,37.785 215.171176,39.993 C215.125176,40.039 215.079176,40.0735 215.033176,40.0965 Z" id="Gazebo" fill="#008875" fill-rule="nonzero"></path>
    </g>
</svg>