<?xml version="1.0" encoding="UTF-8"?>
<svg width="85px" height="25px" viewBox="0 0 85 25" version="1.1" xmlns="http://www.w3.org/2000/svg" xmlns:xlink="http://www.w3.org/1999/xlink">
    <title>Group 3</title>
    <g id="Page-1" stroke="none" stroke-width="1" fill="none" fill-rule="evenodd">
        <g id="Logo" transform="translate(-1219.000000, -314.000000)">
            <g id="Group" transform="translate(984.000000, 152.000000)">
                <g id="Group-3" transform="translate(235.803536, 162.714120)">
                    <path d="M6.23388018,17.5353596 C7.58107221,17.5353596 8.92826424,17.0613476 9.77649626,15.9137396 L9.90123626,17.2858796 L12.6704643,17.2858796 L12.6704643,0.0717592183 L9.65175625,0.0717592183 L9.65175625,6.33370736 C8.80352423,5.28589134 7.4563322,4.86177533 6.18398417,4.86177533 C2.8160041,4.86177533 0.969852056,7.83058739 0.969852056,11.1985675 C0.969852056,14.5914955 2.8160041,17.5353596 6.23388018,17.5353596 Z M6.95737219,14.8409756 C4.91163615,14.8409756 3.98856012,13.2443035 3.98856012,11.1985675 C3.98856012,9.17777943 4.91163615,7.55615939 6.95737219,7.55615939 C9.00310824,7.55615939 9.90123626,9.15283142 9.90123626,11.1985675 C9.90123626,13.2692515 9.00310824,14.8409756 6.95737219,14.8409756 Z M19.6326585,17.5353596 C20.8301625,17.5353596 22.2521986,17.0613476 23.2251706,15.8638436 L23.2251706,17.2858796 L26.1690346,17.2858796 L26.1690346,5.11125533 L23.2251706,5.11125533 L23.2251706,11.7723715 C23.2251706,13.8929515 22.1524066,14.7910796 20.4808905,14.7910796 C18.9590625,14.7910796 18.1607265,13.6434715 18.1607265,12.0467995 L18.1607265,5.11125533 L15.2168624,5.11125533 L15.2168624,12.4210195 C15.2168624,14.9657156 16.4393144,17.5353596 19.6326585,17.5353596 Z M35.6509769,17.5353596 C39.0189569,17.5353596 40.865109,14.5665475 40.865109,11.1985675 C40.865109,7.80563939 39.0189569,4.86177533 35.6010809,4.86177533 C34.3037848,4.86177533 33.0314368,5.28589134 32.1832048,6.33370736 L32.1832048,0.0717592183 L29.1146007,0.0717592183 L29.1146007,17.2858796 L32.1832048,17.2858796 L32.1832048,16.0634276 C33.0314368,17.1112436 34.3786288,17.5353596 35.6509769,17.5353596 Z M34.9025369,14.7910796 C32.8568008,14.7910796 31.9087768,13.2443035 31.9087768,11.1985675 C31.9087768,9.15283142 32.8568008,7.55615939 34.9025369,7.55615939 C36.9482729,7.55615939 37.8713489,9.17777943 37.8713489,11.1985675 C37.8713489,13.2193555 36.9482729,14.7910796 34.9025369,14.7910796 Z M45.8314631,2.81603928 L45.8314631,0.0717592183 L42.712963,0.0717592183 L42.712963,2.81603928 L45.8314631,2.81603928 Z M45.7566191,17.2858796 L45.7566191,5.11125533 L42.787807,5.11125533 L42.787807,17.2858796 L45.7566191,17.2858796 Z M53.7915773,17.5353596 C57.5587254,17.5353596 60.0285775,14.6164435 60.0285775,11.1736195 C60.0285775,7.73079539 57.5587254,4.86177533 53.7915773,4.86177533 C50.0244292,4.86177533 47.5545772,7.73079539 47.5545772,11.1736195 C47.5545772,14.6164435 50.0244292,17.5353596 53.7915773,17.5353596 Z M53.7915773,14.9657156 C51.5462573,14.9657156 50.6481292,13.1694595 50.6481292,11.1736195 C50.6481292,9.17777943 51.5462573,7.43141939 53.7915773,7.43141939 C56.0368974,7.43141939 56.9350254,9.17777943 56.9350254,11.1736195 C56.9350254,13.1694595 56.0368974,14.9657156 53.7915773,14.9657156 Z M65.8431636,17.5353596 C67.0406676,17.5353596 68.4627037,17.0613476 69.4356757,15.8638436 L69.4356757,17.2858796 L72.3795397,17.2858796 L72.3795397,5.11125533 L69.4356757,5.11125533 L69.4356757,11.7723715 C69.4356757,13.8929515 68.3629117,14.7910796 66.6913956,14.7910796 C65.1695676,14.7910796 64.3712316,13.6434715 64.3712316,12.0467995 L64.3712316,5.11125533 L61.4273675,5.11125533 L61.4273675,12.4210195 C61.4273675,14.9657156 62.6498195,17.5353596 65.8431636,17.5353596 Z M78.9675139,17.5353596 C81.26273,17.5353596 83.707634,16.2879596 83.707634,13.4688355 C83.707634,9.00314342 77.5205299,10.1008554 77.5205299,8.2547034 C77.5205299,7.68089939 78.1192819,7.20688738 79.0922539,7.20688738 C80.4144979,7.20688738 81.088094,8.0052234 81.51221,8.75366342 L83.807426,7.50626339 C82.88435,5.85969535 81.287678,4.86177533 79.1920459,4.86177533 C76.8469339,4.86177533 74.6764578,6.08422735 74.6764578,8.65387141 C74.6764578,12.9449275 80.788718,11.5727875 80.788718,13.6185235 C80.788718,14.2671715 80.1899659,15.0655076 78.8178259,15.0655076 C77.1962059,15.0655076 76.5475579,13.9428475 76.2232338,13.0696675 L73.8531738,14.1174835 C74.4519258,15.9885836 76.3978699,17.5353596 78.9675139,17.5353596 Z" id="dubious" fill="#335EEA" fill-rule="nonzero"></path>
                    <line x1="16.196464" y1="22.2858796" x2="26.196464" y2="22.2858796" id="Line-2-Copy" stroke="#335EEA" stroke-width="3" stroke-linecap="square"></line>
                </g>
            </g>
        </g>
    </g>
</svg>