<svg width="195" height="40" viewBox="0 0 195 40" fill="none" xmlns="http://www.w3.org/2000/svg">
<path d="M21.608 7.016C19.688 6.536 18.408 6.36 17.768 6.488C17.16 6.616 16.744 7.144 16.52 8.072C16.52 8.136 16.392 8.424 16.136 8.936C15.272 10.664 14.6 12.168 14.12 13.448C12.232 17.256 11.272 19.272 11.24 19.496C11.24 19.72 11.288 19.88 11.384 19.976C12.216 19.912 13.96 19.336 16.616 18.248C21.832 15.816 24.36 13.272 24.2 10.616C24.2 9.976 23.912 9.272 23.336 8.504C22.792 7.704 22.216 7.208 21.608 7.016ZM15.032 2.936C18.392 2.168 21.432 2.504 24.152 3.944C25.592 4.808 26.696 5.816 27.464 6.968C28.264 8.088 28.664 9.176 28.664 10.232C28.696 11.256 28.568 12.248 28.28 13.208C27.768 14.488 26.472 16.008 24.392 17.768C22.312 19.496 20.376 20.744 18.584 21.512C15.832 22.856 13.704 23.656 12.2 23.912C13.768 26.824 16.264 29.752 19.688 32.696C21.416 34.2 22.904 35.256 24.152 35.864C24.408 36.152 24.408 36.696 24.152 37.496C23.896 38.296 23.672 38.728 23.48 38.792C22.52 39.144 21.432 38.92 20.216 38.12C17.208 36.328 14.216 33.72 11.24 30.296C10.76 29.752 10.392 29.224 10.136 28.712C9.88 28.2 9.704 27.864 9.608 27.704C9.288 27.096 8.984 26.376 8.696 25.544C7.736 28.776 6.312 32.888 4.424 37.88C4.328 38.232 3.896 38.392 3.128 38.36C2.36 38.36 1.72 38.152 1.208 37.736C0.696 37.224 0.44 36.84 0.44 36.584C0.44 36.328 0.888 35.192 1.784 33.176C1.976 32.024 2.44 30.696 3.176 29.192C3.336 28.648 4.584 25.512 6.92 19.784C9.288 14.024 10.968 10.072 11.96 7.928C12.088 7.576 12.024 7.24 11.768 6.92C11.544 6.568 11.176 6.392 10.664 6.392C10.312 6.008 10.12 5.64 10.088 5.288C10.088 4.904 10.264 4.616 10.616 4.424L15.032 2.936ZM36.5015 19.448C36.0855 19.448 35.4775 19.8 34.6775 20.504C33.9095 21.176 33.2375 21.96 32.6615 22.856C32.7255 23.24 33.2535 23.432 34.2455 23.432C35.2375 23.432 35.8615 23.368 36.1175 23.24C36.4055 23.08 36.8695 22.68 37.5095 22.04C38.1815 21.368 38.5335 20.904 38.5655 20.648C38.5655 19.944 38.0535 19.544 37.0295 19.448H36.5015ZM36.8375 15.944C38.7255 15.944 40.1015 16.408 40.9655 17.336C41.8295 18.232 42.2615 19.08 42.2615 19.88V20.264C42.2615 20.936 41.8135 22.04 40.9175 23.576C40.4695 24.376 39.7815 25.096 38.8535 25.736C37.9255 26.344 36.9975 26.664 36.0695 26.696C35.1415 26.728 34.2455 26.68 33.3815 26.552C32.5495 26.392 32.0375 26.312 31.8455 26.312C31.6535 26.312 31.4775 26.424 31.3175 26.648C31.0935 27 30.9815 27.656 30.9815 28.616C31.0775 29.512 31.3175 30.136 31.7015 30.488C32.1175 30.84 32.6135 31.016 33.1895 31.016C33.7655 31.016 34.3095 30.904 34.8215 30.68C35.3335 30.456 35.9255 30.056 36.5975 29.48C37.3015 28.904 37.8455 28.616 38.2295 28.616C38.6135 28.616 38.9975 28.808 39.3815 29.192C39.7655 29.576 39.9735 29.944 40.0055 30.296C39.9095 31.032 39.1575 32.008 37.7495 33.224C36.3735 34.408 34.8055 35 33.0455 35C31.2855 35 29.8455 34.488 28.7255 33.464C27.6055 32.44 27.0455 30.984 27.0455 29.096C27.0455 28.36 27.0775 27.576 27.1415 26.744C27.2375 25.912 27.5255 24.888 28.0055 23.672C28.4855 22.456 29.2535 21.144 30.3095 19.736C31.3655 18.328 32.5015 17.352 33.7175 16.808C34.9335 16.232 35.9735 15.944 36.8375 15.944ZM45.8128 18.92L45.7168 17.864C45.7168 17.384 45.9408 16.984 46.3888 16.664C46.8688 16.312 47.4608 16.136 48.1648 16.136C48.8688 16.136 49.4288 16.44 49.8448 17.048C50.2608 17.624 50.4688 18.216 50.4688 18.824C50.4688 19.4 50.3408 19.944 50.0848 20.456L48.3568 24.68C48.3568 24.776 48.3888 24.824 48.4528 24.824C48.5488 24.92 48.9648 24.616 49.7008 23.912C50.4368 23.208 51.5248 22.344 52.9648 21.32C54.4368 20.264 55.4928 19.64 56.1328 19.448C56.5808 19.448 57.1248 19.736 57.7648 20.312C58.4048 20.888 58.7248 21.544 58.7248 22.28C58.2448 24.456 57.9088 25.688 57.7168 25.976C58.3248 25.24 59.3808 24.36 60.8848 23.336C62.3888 22.312 63.4928 21.784 64.1968 21.752C65.2208 21.752 65.9088 22.232 66.2608 23.192C66.6448 24.152 66.8848 25.4 66.9808 26.936C67.0768 28.44 67.2368 29.464 67.4608 30.008C67.4928 30.2 67.6688 30.344 67.9888 30.44C68.3408 30.536 68.6608 30.696 68.9488 30.92C69.2688 31.112 69.4288 31.464 69.4288 31.976C69.4288 33.256 68.3728 33.896 66.2608 33.896C65.3328 33.896 64.5168 33.416 63.8127 32.456C63.1408 31.464 62.8048 30.296 62.8048 28.952C62.8048 28.408 62.8368 27.864 62.9008 27.32C62.9968 26.776 63.0448 26.456 63.0448 26.36C63.0448 26.264 62.9968 26.216 62.9008 26.216C62.0688 26.216 60.2608 27.736 57.4768 30.776C57.3808 30.84 57.3008 30.92 57.2368 31.016C56.9808 31.208 56.6448 31.512 56.2288 31.928C55.2688 32.824 54.5968 33.272 54.2128 33.272C53.8288 33.272 53.5248 33.176 53.3008 32.984L52.7728 32.552C52.3568 32.264 52.1488 31.848 52.1488 31.304V31.064L53.2528 27.848C54.0528 26.088 54.4528 25.112 54.4528 24.92C54.4528 24.728 54.4368 24.632 54.4048 24.632C53.9248 24.632 53.0288 25.352 51.7168 26.792C50.3088 28.328 49.3648 29.352 48.8848 29.864C48.4048 30.344 47.8928 30.888 47.3488 31.496C46.8368 32.104 46.3888 32.632 46.0048 33.08C45.6528 33.496 45.4608 33.704 45.4288 33.704C44.7248 33.704 44.0848 33.432 43.5088 32.888C42.9648 32.344 42.6928 31.784 42.6928 31.208C42.6928 30.632 42.7408 30.104 42.8368 29.624C42.9328 29.112 43.0928 28.392 43.3168 27.464C43.5408 26.536 43.6848 25.912 43.7488 25.592C43.8448 25.24 43.9248 24.904 43.9888 24.584C44.0528 24.232 44.0848 24.024 44.0848 23.96C44.1168 23.864 44.1968 23.64 44.3248 23.288C44.4528 22.936 44.5968 22.568 44.7568 22.184C44.9488 21.768 45.2368 21.112 45.6208 20.216C45.7488 19.8 45.8128 19.368 45.8128 18.92ZM79.9569 23.096C79.9569 23.096 79.6849 23.176 79.1409 23.336C79.0129 23.336 78.8369 23.256 78.6129 23.096L77.8449 22.136L77.0289 22.952C76.2929 23.688 75.6689 24.68 75.1569 25.928C74.6769 27.176 74.4049 28.168 74.3409 28.904C74.2769 29.64 74.3249 30.104 74.4849 30.296C74.6769 30.456 74.9009 30.552 75.1569 30.584C75.4449 30.584 75.9729 30.392 76.7409 30.008C77.1569 29.592 77.4449 29.368 77.6049 29.336C77.7649 29.272 77.8609 29.224 77.8929 29.192C77.9249 29.16 77.9729 29.096 78.0369 29C78.1009 28.872 78.1649 28.728 78.2289 28.568C78.3569 28.216 78.7729 27.592 79.4769 26.696C80.1169 25.992 80.5169 25.432 80.6769 25.016C80.8689 24.568 80.9329 24.2 80.8689 23.912C80.8049 23.624 80.7249 23.464 80.6289 23.432C80.5649 23.368 80.4529 23.32 80.2929 23.288C80.1649 23.224 80.0529 23.16 79.9569 23.096ZM84.3249 19.112C84.5809 18.984 84.9649 18.984 85.4769 19.112C86.0209 19.24 86.2929 19.4 86.2929 19.592C86.2929 19.784 86.3409 20.008 86.4369 20.264C86.5649 20.52 86.6769 20.648 86.7729 20.648C87.0929 20.68 87.1249 20.936 86.8689 21.416C86.6129 21.896 86.2609 22.296 85.8129 22.616C85.0129 23.128 84.5969 23.448 84.5649 23.576C84.5329 23.672 84.5489 23.832 84.6129 24.056C85.0289 25.048 84.7409 26.36 83.7489 27.992C82.7889 29.624 81.4609 31.096 79.7649 32.408C78.1009 33.72 76.5649 34.456 75.1569 34.616C74.4209 34.872 73.5729 34.568 72.6129 33.704C71.8769 33.352 71.2369 32.76 70.6929 31.928C70.1489 31.096 69.9089 30.44 69.9729 29.96C70.1969 27.528 71.0449 24.984 72.5169 22.328C74.0209 19.64 75.7329 17.864 77.6529 17C78.2929 16.712 78.9809 16.616 79.7169 16.712C80.4529 16.808 80.9489 17.112 81.2049 17.624C81.6849 18.552 81.5729 19.144 80.8689 19.4C80.5169 19.4 80.3409 19.544 80.3409 19.832C80.5649 19.928 81.2209 19.896 82.3089 19.736C83.3969 19.576 84.0689 19.368 84.3249 19.112ZM89.0435 20.312C88.9155 20.312 88.8515 20.072 88.8515 19.592V19.352C88.8515 19.256 88.7715 19.16 88.6115 19.064C88.4835 18.968 88.3715 18.872 88.2755 18.776C88.2115 18.648 88.3075 18.408 88.5635 18.056C88.8195 17.704 89.0435 17.512 89.2355 17.48C89.4595 17.448 89.8115 17.4 90.2915 17.336C90.8035 17.272 91.2515 17.208 91.6355 17.144C92.6915 16.952 93.4275 16.6 93.8435 16.088C95.0595 12.952 95.9395 11.08 96.4835 10.472C97.8595 9.768 98.8675 9.928 99.5075 10.952C99.5715 11.048 99.6675 11.176 99.7955 11.336C99.9555 11.464 100.036 11.56 100.036 11.624C100.036 11.688 100.004 11.864 99.9395 12.152C99.8755 12.44 99.1875 13.848 97.8755 16.376C98.2595 16.44 98.7715 16.44 99.4115 16.376C100.308 16.184 101.06 16.136 101.668 16.232C103.012 16.232 103.748 16.968 103.876 18.44C104.036 19.304 103.316 19.736 101.716 19.736C98.4195 19.864 96.7555 20.008 96.7235 20.168C96.5635 20.264 96.3075 20.76 95.9555 21.656C95.6035 22.552 95.3155 23.4 95.0915 24.2C94.2275 28.2 94.2435 30.68 95.1395 31.64C95.6195 32.12 96.6115 31.752 98.1155 30.536C98.6595 30.088 99.1555 29.944 99.6035 30.104C100.084 30.264 100.34 30.616 100.372 31.16C100.436 31.672 100.292 32.232 99.9395 32.84C99.3635 33.704 98.4675 34.392 97.2515 34.904C96.0355 35.416 95.0435 35.56 94.2755 35.336C93.5395 35.112 92.6115 34.504 91.4915 33.512C90.9795 32.84 90.6595 32.232 90.5315 31.688C90.4355 31.144 90.3875 30.472 90.3875 29.672V28.28C90.3875 27.544 90.8835 25.192 91.8755 21.224C91.9715 20.872 91.8115 20.648 91.3955 20.552C91.0115 20.424 90.5475 20.376 90.0035 20.408C89.4595 20.408 89.1395 20.376 89.0435 20.312ZM114.102 20.072C113.686 19.656 113.078 19.736 112.278 20.312C111.958 20.408 111.51 20.696 110.934 21.176C110.39 21.656 109.926 22.136 109.542 22.616C109.158 23.096 109.046 23.384 109.206 23.48C109.174 23.544 109.206 23.592 109.302 23.624C109.43 23.656 109.574 23.688 109.734 23.72C109.926 23.72 110.102 23.736 110.262 23.768C110.422 23.768 110.71 23.72 111.126 23.624C111.574 23.528 112.006 23.352 112.422 23.096C112.87 22.808 113.382 22.264 113.958 21.464C114.214 20.696 114.262 20.232 114.102 20.072ZM113.142 26.792C112.502 26.952 111.718 27.032 110.79 27.032C109.894 27.032 109.302 26.952 109.014 26.792C108.662 26.6 108.406 26.84 108.246 27.512L108.102 28.568C107.974 29.4 108.182 30.104 108.726 30.68C108.982 31 109.382 31.144 109.926 31.112C110.47 31.048 110.95 30.856 111.366 30.536C111.782 30.216 112.23 29.8 112.71 29.288C113.19 28.776 113.542 28.44 113.766 28.28C114.086 27.704 114.886 27.592 116.166 27.944C116.87 28.456 116.774 29.512 115.878 31.112C115.718 31.432 115.222 31.976 114.39 32.744C113.59 33.512 112.95 34.04 112.47 34.328C110.806 35.192 109.014 35.272 107.094 34.568C104.694 33.608 103.702 31.24 104.118 27.464C104.182 26.536 104.15 25.896 104.022 25.544C103.926 25.16 103.766 24.888 103.542 24.728C103.35 24.536 103.142 24.344 102.918 24.152C102.406 23.672 102.134 23.336 102.102 23.144C102.102 22.952 102.166 22.696 102.294 22.376C102.422 22.024 102.534 21.816 102.63 21.752C103.366 21.432 103.782 21.288 103.878 21.32C104.006 21.32 104.198 21.4 104.454 21.56C104.742 21.72 104.886 21.864 104.886 21.992C105.046 22.312 105.398 21.976 105.942 20.984C106.07 20.728 106.214 20.44 106.374 20.12C106.822 19.448 107.43 18.792 108.198 18.152C108.966 17.48 109.574 17.032 110.022 16.808C110.502 16.552 111.174 16.344 112.038 16.184C112.902 15.992 113.51 15.912 113.862 15.944C114.918 16.04 116.022 16.696 117.174 17.912C117.75 18.328 118.086 19.08 118.182 20.168C118.278 21.224 118.15 22.072 117.798 22.712C117.67 23.192 117.03 23.928 115.878 24.92C114.758 25.88 113.846 26.504 113.142 26.792ZM137.054 22.808V22.952C136.99 22.952 136.926 23.064 136.862 23.288C136.83 23.512 136.782 23.672 136.718 23.768C136.494 23.96 136.382 24.424 136.382 25.16C136.03 26.024 135.742 27.112 135.518 28.424C135.294 29.736 135.214 30.712 135.278 31.352C135.406 32.44 135.87 33.192 136.67 33.608C137.502 33.992 138.11 34.184 138.494 34.184C139.23 34.344 140.702 34.12 142.91 33.512C143.262 33.416 143.678 33.336 144.158 33.272C144.638 33.208 145.39 33.016 146.414 32.696C147.47 32.376 148.078 32.28 148.238 32.408C148.878 32.952 149.102 33.512 148.91 34.088C148.782 34.376 148.126 34.968 146.942 35.864C145.758 36.792 144.766 37.368 143.966 37.592C143.038 38.008 141.662 38.232 139.838 38.264C138.014 38.328 136.75 38.216 136.046 37.928C133.806 37.384 132.142 35.512 131.054 32.312C130.99 31.704 130.99 30.776 131.054 29.528C131.118 28.248 131.198 27.56 131.294 27.464C131.422 27.368 131.47 27.192 131.438 26.936C131.438 26.68 131.55 26.2 131.774 25.496C132.03 24.76 132.11 24.184 132.014 23.768C132.174 23.416 132.334 23.16 132.494 23C132.718 22.744 132.798 22.472 132.734 22.184C132.67 21.864 132.798 21.48 133.118 21.032L133.55 20.312C133.582 20.088 133.822 19.384 134.27 18.2C134.75 16.984 135.07 16.248 135.23 15.992V15.896C135.358 15.576 135.534 15.24 135.758 14.888C135.95 13.608 136.958 11.512 138.782 8.6C140.606 5.656 141.902 3.816 142.67 3.08C143.982 1.576 145.054 1.24 145.886 2.072C146.238 2.456 146.478 3 146.606 3.704C146.734 4.408 146.622 4.792 146.27 4.856C145.822 5.144 144.222 7.784 141.47 12.776L139.598 16.664C138.83 18.296 138.11 20.056 137.438 21.944C137.182 22.2 137.054 22.488 137.054 22.808ZM152.153 30.392L152.345 29.384C152.313 29.192 152.441 28.664 152.729 27.8C153.433 26.2 154.329 23.592 155.417 19.976C155.417 19.592 155.673 19.384 156.185 19.352C156.537 19.224 156.985 19.384 157.529 19.832C158.073 20.248 158.521 20.728 158.873 21.272C159.289 21.688 159.241 22.456 158.729 23.576C158.249 24.664 157.913 25.736 157.721 26.792C157.337 27.656 157.081 28.296 156.953 28.712C156.825 29.096 156.681 29.752 156.521 30.68C156.361 31.576 156.185 32.168 155.993 32.456C155.705 33.704 155.193 34.472 154.457 34.76C153.753 35.048 153.129 34.856 152.585 34.184C152.233 33.832 152.009 33.208 151.913 32.312C151.849 31.384 151.929 30.744 152.153 30.392ZM156.953 14.024C156.761 13.608 156.665 13.272 156.665 13.016C156.665 12.76 156.729 12.536 156.857 12.344C157.017 12.152 157.273 11.672 157.625 10.904C158.329 9.528 158.793 8.824 159.017 8.792C159.401 8.536 159.929 8.552 160.601 8.84C161.305 9.128 161.817 9.528 162.137 10.04C162.713 11.32 162.457 12.616 161.369 13.928C160.889 14.568 160.281 14.984 159.545 15.176C158.809 15.336 158.249 15.288 157.865 15.032C157.481 14.744 157.177 14.408 156.953 14.024ZM173.911 15.464C174.487 15.72 175.015 15.88 175.495 15.944C175.975 16.008 176.503 16.44 177.079 17.24C177.687 18.008 177.943 18.76 177.847 19.496C177.783 20.2 177.511 20.904 177.031 21.608C176.583 22.312 176.119 22.712 175.639 22.808C175.767 22.808 175.735 22.76 175.543 22.664C175.159 22.472 174.951 22.36 174.919 22.328L174.727 22.424C174.727 22.264 174.647 22.04 174.487 21.752C174.327 21.464 174.263 21.128 174.295 20.744C174.327 20.328 174.343 20.088 174.343 20.024C174.343 19.928 174.343 19.848 174.343 19.784C174.375 19.72 174.359 19.672 174.295 19.64C174.103 19.608 173.927 19.592 173.767 19.592C172.711 19.368 171.591 19.704 170.407 20.6C169.479 21.24 168.871 21.704 168.583 21.992C168.327 22.248 168.055 22.712 167.767 23.384C167.447 23.864 167.287 24.232 167.287 24.488C167.287 25.032 168.375 25.752 170.551 26.648C171.255 26.936 171.719 27.272 171.943 27.656C172.199 28.04 172.359 28.296 172.423 28.424C172.807 29.192 172.999 29.656 172.999 29.816C173.255 30.584 173.335 31.016 173.239 31.112C173.239 31.144 173.271 31.192 173.335 31.256C173.687 31.96 173.431 32.728 172.567 33.56C171.703 34.36 170.727 34.856 169.639 35.048C168.551 35.24 167.527 35.336 166.567 35.336C164.871 35.336 163.623 34.792 162.823 33.704C162.375 32.744 162.343 31.912 162.727 31.208C162.951 30.76 163.271 30.744 163.687 31.16C164.103 31.416 164.583 31.544 165.127 31.544C165.671 31.544 166.327 31.528 167.095 31.496C167.895 31.432 168.423 31.304 168.679 31.112C168.967 30.888 169.111 30.664 169.111 30.44C169.111 30.216 169.015 30.008 168.823 29.816C167.511 29.496 166.279 28.952 165.127 28.184C163.975 27.384 163.303 26.552 163.111 25.688C162.919 24.824 162.999 23.832 163.351 22.712C163.735 21.592 164.311 20.6 165.079 19.736C166.487 18.808 167.255 18.328 167.383 18.296V18.344C168.311 17.32 169.895 16.424 172.135 15.656C173.159 15.528 173.751 15.464 173.911 15.464ZM180.036 17.816C179.812 17.784 179.62 17.672 179.46 17.48C179.332 17.288 179.268 17.096 179.268 16.904C179.268 16.68 179.396 16.328 179.652 15.848C179.94 15.368 180.18 15.144 180.372 15.176C180.596 15.176 181.076 15.176 181.812 15.176C182.58 15.144 183.092 15.08 183.348 14.984C183.604 14.888 183.796 14.68 183.924 14.36C184.052 14.008 184.372 13.416 184.884 12.584C186.004 10.408 186.788 9.144 187.236 8.792C187.684 8.44 188.196 8.232 188.772 8.168C189.38 8.104 189.956 8.248 190.5 8.6C190.98 9.272 190.996 9.944 190.548 10.616C190.356 11 190.052 11.496 189.636 12.104C189.22 12.712 188.916 13.192 188.724 13.544C188.18 14.312 188.1 14.728 188.484 14.792C188.868 14.856 189.812 14.776 191.316 14.552C192.82 14.296 193.668 14.84 193.86 16.184C193.956 16.952 193.876 17.416 193.62 17.576C193.364 17.736 192.628 17.816 191.412 17.816C190.388 17.976 189.412 18.072 188.484 18.104C187.588 18.104 187.044 18.136 186.852 18.2C186.468 18.296 186.164 18.6 185.94 19.112C185.844 19.176 185.732 19.352 185.604 19.64C185.412 20.024 185.012 20.776 184.404 21.896C183.572 24.328 182.932 26.84 182.484 29.432C182.388 30.072 182.42 30.52 182.58 30.776C182.74 31.032 183.252 31.208 184.116 31.304C185.652 31.464 187.332 31 189.156 29.912L190.452 29.144C190.676 28.76 191.028 28.968 191.508 29.768C191.636 29.96 191.732 30.152 191.796 30.344C191.796 31.592 191.124 32.6 189.78 33.368C188.468 34.2 187.092 34.744 185.652 35C184.212 35.224 183.124 35.256 182.388 35.096C181.652 34.968 180.964 34.552 180.324 33.848C179.684 33.112 179.284 32.488 179.124 31.976L178.884 31.592C178.692 31.432 178.628 30.616 178.692 29.144C178.756 27.64 178.868 26.584 179.028 25.976C179.22 25.208 179.764 23.592 180.66 21.128L181.956 18.344L180.036 17.816Z" fill="#E10476"/>
</svg>
