<?xml version="1.0" encoding="UTF-8"?>
<svg version="1.1" viewBox="0 0 30 30" xmlns="http://www.w3.org/2000/svg" xmlns:xlink="http://www.w3.org/1999/xlink">
    <!--Generated by IJSVG (https://github.com/iconjar/IJSVG)-->
    <g stroke-linecap="round" stroke-width="1" stroke="#E00576" fill="none" stroke-linejoin="round">
        <path d="M16.9802,8.16577c1.54736,-1.79382 3.04907,-3.88489 4.51208,-6.11768c-1.95508,-0.982056 -4.15533,-1.5481 -6.49231,-1.5481c-1.00018,0 -1.97668,0.101379 -2.91986,0.29425c1.03027,2.086 2.03705,4.33905 2.99939,6.75183"></path>
        <path d="M13.6747,8.68909c-3.35559,-0.644592 -7.28619,-0.831299 -11.245,-0.896484"></path>
        <path d="M13.8886,10.6752c-4.66351,6.05322 -7.36114,11.6639 -8.27795,15.2203c0.916809,-3.55646 3.61444,-9.16711 8.27795,-15.2203"></path>
        <path d="M16.3847,11.2852c1.59131,4.7887 4.7818,10.2371 7.39911,15.1097c-2.61731,-4.87262 -5.8078,-10.321 -7.39911,-15.1097"></path>
        <path d="M28.8163,10.6014c-3.34143,0.0322266 -7.16718,-0.205261 -11.3456,-0.810974"></path>
        <path d="M16.9142,8.08579c0.781049,0.781049 0.781049,2.04738 0,2.82843c-0.781049,0.781049 -2.04738,0.781049 -2.82843,0c-0.781049,-0.781049 -0.781049,-2.04738 0,-2.82843c0.781049,-0.781049 2.04738,-0.781049 2.82843,0"></path>
        <path d="M25.253,4.74695c5.6626,5.6626 5.6626,14.8435 0,20.5061c-5.6626,5.6626 -14.8435,5.6626 -20.5061,3.55271e-15c-5.6626,-5.6626 -5.6626,-14.8435 -1.77636e-15,-20.5061c5.6626,-5.6626 14.8435,-5.6626 20.5061,-1.77636e-15"></path>
    </g>
</svg>