<?xml version="1.0" encoding="UTF-8"?>
<svg version="1.1" viewBox="0 0 24 24" xmlns="http://www.w3.org/2000/svg" xmlns:xlink="http://www.w3.org/1999/xlink">
    <!--Generated by IJSVG (https://github.com/iconjar/IJSVG)-->
    <g stroke-linecap="round" stroke-width="1" stroke="#E00576" fill="none" stroke-linejoin="round">
        <path d="M7.32843,11.6716c1.5621,1.5621 1.5621,4.09476 0,5.65685c-1.5621,1.5621 -4.09476,1.5621 -5.65685,0c-1.5621,-1.5621 -1.5621,-4.09476 -8.88178e-16,-5.65685c1.5621,-1.5621 4.09476,-1.5621 5.65685,-1.77636e-15"></path>
        <path d="M22.3284,11.6716c1.5621,1.5621 1.5621,4.09476 0,5.65685c-1.5621,1.5621 -4.09476,1.5621 -5.65685,0c-1.5621,-1.5621 -1.5621,-4.09476 0,-5.65685c1.5621,-1.5621 4.09476,-1.5621 5.65685,-1.77636e-15"></path>
        <path d="M19.5,14.5l-3.5,-7h-6.60526l-4.89474,7l7,1l4.5,-8"></path>
        <path d="M11.5,15.5l-2.63,-10"></path>
        <path d="M12.2071,14.7929c0.390524,0.390524 0.390524,1.02369 0,1.41421c-0.390524,0.390524 -1.02369,0.390524 -1.41421,0c-0.390524,-0.390524 -0.390524,-1.02369 0,-1.41421c0.390524,-0.390524 1.02369,-0.390524 1.41421,0"></path>
        <path d="M16,7.5l-1,-2h3.5c0.552284,0 0.999998,0.447715 0.999998,0.999999v2e-06c0,0.552284 -0.447714,0.999999 -0.999998,0.999999h-0.500002"></path>
        <path d="M7,5.5h3.5"></path>
    </g>
</svg>