<?xml version="1.0" encoding="UTF-8"?>
<svg version="1.1" viewBox="0 0 24 24" xmlns="http://www.w3.org/2000/svg" xmlns:xlink="http://www.w3.org/1999/xlink">
    <!--Generated by IJSVG (https://github.com/iconjar/IJSVG)-->
    <g stroke-linecap="round" stroke-width="1" stroke="#E00576" fill="none" stroke-linejoin="round">
        <path d="M16.5,2.5h2.5c0.828426,0 1.5,0.671573 1.5,1.5v18c0,0.828426 -0.671574,1.5 -1.5,1.5h-14c-0.828427,0 -1.5,-0.671574 -1.5,-1.5v-18c0,-0.828427 0.671573,-1.5 1.5,-1.5h2.5"></path>
        <path d="M13.7226,1.5c-0.346436,-0.595276 -0.984192,-1 -1.7226,-1c-0.738403,0 -1.37616,0.404724 -1.7226,1h-1.7774c-0.552285,0 -1,0.447715 -1,1v0.5c0,0.828427 0.671573,1.5 1.5,1.5h6c0.828427,0 1.5,-0.671573 1.5,-1.5v-0.5c0,-0.552285 -0.447716,-1 -1,-1h-1.7774Z"></path>
        <path d="M8.20711,8.79289c0.390524,0.390524 0.390524,1.02369 0,1.41421c-0.390524,0.390524 -1.02369,0.390524 -1.41421,0c-0.390524,-0.390524 -0.390524,-1.02369 0,-1.41421c0.390524,-0.390524 1.02369,-0.390524 1.41421,0"></path>
        <path d="M8.20711,13.7929c0.390524,0.390524 0.390524,1.02369 0,1.41421c-0.390524,0.390524 -1.02369,0.390524 -1.41421,0c-0.390524,-0.390524 -0.390524,-1.02369 0,-1.41421c0.390524,-0.390524 1.02369,-0.390524 1.41421,0"></path>
        <path d="M8.20711,18.7929c0.390524,0.390524 0.390524,1.02369 0,1.41421c-0.390524,0.390524 -1.02369,0.390524 -1.41421,0c-0.390524,-0.390524 -0.390524,-1.02369 0,-1.41421c0.390524,-0.390524 1.02369,-0.390524 1.41421,0"></path>
        <path d="M11.5,9.5h6"></path>
        <path d="M11.5,14.5h6"></path>
        <path d="M11.5,19.5h6"></path>
    </g>
</svg>