<?xml version="1.0" encoding="UTF-8"?>
<svg version="1.1" viewBox="0 0 24 24" xmlns="http://www.w3.org/2000/svg" xmlns:xlink="http://www.w3.org/1999/xlink">
    <!--Generated by IJSVG (https://github.com/iconjar/IJSVG)-->
    <g stroke-linecap="round" stroke-width="1" stroke="#E00576" fill="none" stroke-linejoin="round">
        <path d="M16.5962,0.93934c2.53841,0.585786 2.53841,1.53553 0,2.12132c-2.53841,0.585786 -6.65398,0.585786 -9.19239,4.44089e-16c-2.53841,-0.585786 -2.53841,-1.53553 -8.88178e-16,-2.12132c2.53841,-0.585786 6.65398,-0.585786 9.19239,0"></path>
        <path d="M5.16394,3.68024c-0.422974,0.250366 -0.66394,0.527283 -0.66394,0.819763c0,1.10455 3.35785,2 7.5,2c4.14215,0 7.5,-0.895447 7.5,-2c0,-0.29248 -0.240967,-0.569397 -0.66394,-0.819763"></path>
        <path d="M5.5,2l-0.5,2.5c0,0.828427 3.13401,1.5 7,1.5c3.86599,0 7,-0.671573 7,-1.5l-0.5,-2.5"></path>
        <path d="M5.1098,5.28979c0.472107,3.39679 2.3158,16.6627 2.3902,17.2258c0.0853882,0.646057 3,0.984375 4.5,0.984375c1.5,0 4.41461,-0.338318 4.5,-0.984375c0.0744019,-0.563171 1.91809,-13.829 2.3902,-17.2258"></path>
        <path d="M7.11224,19.7084c0.479858,0.452087 2.48413,0.791626 4.88776,0.791626c2.40363,0 4.4079,-0.339539 4.88776,-0.791626"></path>
        <path d="M5.70245,9.55457c0.708252,0.542847 3.25507,0.945435 6.29755,0.945435c3.04248,0 5.58929,-0.402588 6.29755,-0.945435"></path>
    </g>
</svg>