<?xml version="1.0" encoding="UTF-8"?>
<svg version="1.1" viewBox="0 0 24 24" xmlns="http://www.w3.org/2000/svg" xmlns:xlink="http://www.w3.org/1999/xlink">
    <!--Generated by IJSVG (https://github.com/iconjar/IJSVG)-->
    <g stroke-linecap="round" stroke-width="1" stroke="#E00576" fill="none" stroke-linejoin="round">
        <path d="M20.5,5.50018v16.4998c0,0.828426 -0.671574,1.5 -1.5,1.5h-14c-0.828427,0 -1.5,-0.671574 -1.5,-1.5v-20c0,-0.828427 0.671573,-1.5 1.5,-1.5h10.4999l5.00006,5.00018Z"></path>
        <path d="M15.4999,0.5v3.5c0,0.828427 0.671573,1.5 1.5,1.5h3.50006"></path>
        <path d="M10.5,14.5h7"></path>
        <path d="M6.5,5.5h6"></path>
        <path d="M6.5,11.5h11"></path>
        <path d="M6.5,8.5h11"></path>
        <path d="M6.5,20.5c0.875,-0.65625 2,-2.15625 2,-3c0,-0.84375 -0.75,-1 -1,-1c-0.25,0 -1,0.5625 -1,1.5c0,0.9375 1.34375,2.5 2,2.5c0.65625,0 1.1875,-2 1.5,-2c0.312497,0 0.53125,2 1,2c0.46875,0 2.5,-2 2.5,-2"></path>
    </g>
</svg>