<?xml version="1.0" encoding="UTF-8"?>
<svg version="1.1" viewBox="0 0 24 24" xmlns="http://www.w3.org/2000/svg" xmlns:xlink="http://www.w3.org/1999/xlink">
    <!--Generated by IJSVG (https://github.com/iconjar/IJSVG)-->
    <g stroke-linecap="round" stroke-width="1" stroke="#E00576" fill="none" stroke-linejoin="round">
        <path d="M0.5,17v-4c0,-6.35127 5.14873,-11.5 11.5,-11.5c6.35127,0 11.5,5.14873 11.5,11.5v4"></path>
        <path d="M3.86827,4.86827l1.41421,1.41421c3.70998,-3.70998 9.72505,-3.70998 13.435,0l1.41421,-1.41421"></path>
        <path d="M0.5,17c0,1.62842 0.411011,3.1604 1.133,4.5h2.867v-9h-2.867c-0.721985,1.3396 -1.133,2.87158 -1.133,4.5Z"></path>
        <path d="M19.5,21.5h2.867c0.721985,-1.3396 1.133,-2.87158 1.133,-4.5c0,-1.62842 -0.411011,-3.1604 -1.133,-4.5h-2.867v9Z"></path>
        <path d="M5.5,22.5h-2e-06c-0.552284,0 -0.999999,-0.447714 -0.999999,-0.999998v-9c0,-0.552284 0.447715,-0.999999 0.999999,-0.999999h2e-06c0.552284,0 0.999999,0.447715 0.999999,0.999999v9c0,0.552284 -0.447715,0.999998 -0.999999,0.999998Z"></path>
        <path d="M18.5,22.5h-3.8e-06c-0.552284,0 -0.999998,-0.447714 -0.999998,-0.999998v-9c0,-0.552284 0.447714,-0.999999 0.999998,-0.999999h3.8e-06c0.552284,0 0.999998,0.447715 0.999998,0.999999v9c0,0.552284 -0.447714,0.999998 -0.999998,0.999998Z"></path>
    </g>
</svg>