<?xml version="1.0" encoding="UTF-8"?>
<svg version="1.1" viewBox="0 0 24 24" xmlns="http://www.w3.org/2000/svg" xmlns:xlink="http://www.w3.org/1999/xlink">
    <!--Generated by IJSVG (https://github.com/iconjar/IJSVG)-->
    <defs>
        <path d="M21.2672,5.34735c-1.5473,-1.5473 -3.69824,-2.12122 -5.69464,-1.72455l-2.09772,-2.09772l-6.1e-05,6.1e-05c-0.633362,-0.633362 -1.5083,-1.02515 -2.47479,-1.02515c-1.93298,0 -3.5,1.56702 -3.5,3.5c0,0.966492 0.391785,1.84149 1.02515,2.47485l2.09766,2.09766c-0.396667,1.9964 0.177246,4.1474 1.72455,5.6947" id="a"></path>
    </defs>
    <g stroke-linecap="round" stroke-width="1" stroke="#E00576" fill="none" stroke-linejoin="round">
        <use xlink:href="#a"></use>
        <path d="M21.2672,8.35177c2.46315,0.803867 2.46315,2.10719 0,2.91106c-2.46315,0.803867 -6.45671,0.803867 -8.91986,0c-2.46315,-0.803867 -2.46315,-2.10719 0,-2.91106c2.46315,-0.803867 6.45671,-0.803867 8.91986,0" transform="matrix(0.707107,-0.707107,0.707107,0.707107,-2.01206,14.757)"></path>
        <path d="M14.3459,9.44751c0.275085,0.334656 0.687012,0.55249 1.15405,0.55249c0.82843,0 1.5,-0.67157 1.5,-1.5c0,-0.467041 -0.217834,-0.878967 -0.55249,-1.15405"></path>
        <path d="M5.91421,11.0858c0.781049,0.781049 0.781049,2.04738 0,2.82843c-0.781049,0.781049 -2.04738,0.781049 -2.82843,0c-0.781049,-0.781049 -0.781049,-2.04738 -4.44089e-16,-2.82843c0.781049,-0.781049 2.04738,-0.781049 2.82843,0"></path>
        <path d="M2.5,23.5h14v-0.966024c0,-0.333687 -0.157288,-0.659805 -0.443623,-0.83115c-2.01003,-1.20283 -4.93055,-1.20283 -6.55638,-1.20283c-1.63351,0 -4.57398,0 -6.58481,1.3102c-0.26968,0.175714 -0.415191,0.491573 -0.415191,0.813448v0.876348Z"></path>
        <path d="M8.52515,6.47485c-0.0076294,-0.0076294 -0.0130005,-0.0172729 -0.0205689,-0.0249634l-3.60889,4.09003"></path>
        <path d="M6.39,11.87l3.53,-4"></path>
        <path d="M10.72,20.52l-4.46,-7.09"></path>
        <path d="M4.57,14.49l3.79,6.02"></path>
        <use xlink:href="#a"></use>
    </g>
</svg>