<?xml version="1.0" encoding="UTF-8"?>
<svg version="1.1" viewBox="0 0 24 24" xmlns="http://www.w3.org/2000/svg" xmlns:xlink="http://www.w3.org/1999/xlink">
    <!--Generated by IJSVG (https://github.com/iconjar/IJSVG)-->
    <g stroke-linecap="round" stroke-width="1" stroke="#E00576" fill="none" stroke-linejoin="round">
        <path d="M15.6757,23.4999l-7.35167,-0.0009365c-0.756405,-9.73e-05 -1.39439,-0.563366 -1.48822,-1.31393l-1.33576,-10.685h13l-1.33574,10.6859c-0.0938397,0.750715 -0.73205,1.31404 -1.48861,1.31395Z"></path>
        <path d="M14.5,3.5h-2"></path>
        <path d="M12.5,6.5h2"></path>
        <path d="M12.5,9.5h2"></path>
        <path d="M7.5,4.50008c0,-1.10457 -2,-2.32812 -2,-4c-1.75,1.85938 -2,2.89543 -2,4c0,1.10457 0.895431,2 2,2c1.10457,0 2,-0.895431 2,-2Z"></path>
        <path d="M18,3l2.5,1.5"></path>
        <path d="M14.5,11.5001v-11h-5v11"></path>
        <path d="M5.17,6.47l1.55,5.03"></path>
        <path d="M8.74,11.5l-1.66,-5.79"></path>
        <path d="M17,11.5001l3.5,-7v-3l-2.5,1.5l-3.5,6.61108"></path>
    </g>
</svg>